<?xml version="1.0" encoding="UTF-8" standalone="no"?>
<svg
   width="24"
   height="24"
   viewBox="0 0 24 24"
   version="1.1"
   id="svg511"
   sodipodi:docname="arrowDown.svg"
   inkscape:version="1.2 (dc2aedaf03, 2022-05-15)"
   xmlns:inkscape="http://www.inkscape.org/namespaces/inkscape"
   xmlns:sodipodi="http://sodipodi.sourceforge.net/DTD/sodipodi-0.dtd"
   xmlns="http://www.w3.org/2000/svg"
   xmlns:svg="http://www.w3.org/2000/svg">
  <sodipodi:namedview
     id="namedview513"
     pagecolor="#505050"
     bordercolor="#ffffff"
     borderopacity="1"
     inkscape:showpageshadow="0"
     inkscape:pageopacity="0"
     inkscape:pagecheckerboard="1"
     inkscape:deskcolor="#505050"
     showgrid="false"
     inkscape:zoom="42.791667"
     inkscape:cx="8.1324245"
     inkscape:cy="11.988315"
     inkscape:window-width="3840"
     inkscape:window-height="2066"
     inkscape:window-x="-11"
     inkscape:window-y="-11"
     inkscape:window-maximized="1"
     inkscape:current-layer="svg511" />
  <defs
     id="defs16">
    <inkscape:path-effect
       effect="fillet_chamfer"
       id="path-effect1897"
       is_visible="true"
       lpeversion="1"
       nodesatellites_param="F,0,0,1,0,2,0,1 @ F,0,0,1,0,2,0,1 @ F,0,0,1,0,2,0,1 @ F,0,0,1,0,2,0,1 @ F,0,0,1,0,2,0,1 @ F,0,0,1,0,2,0,1"
       unit="px"
       method="auto"
       mode="F"
       radius="2"
       chamfer_steps="1"
       flexible="false"
       use_knot_distance="true"
       apply_no_radius="true"
       apply_with_radius="true"
       only_selected="false"
       hide_knots="false" />
    <inkscape:path-effect
       effect="powerstroke"
       id="path-effect1891"
       is_visible="true"
       lpeversion="1"
       offset_points="3,0.5"
       not_jump="false"
       sort_points="true"
       interpolator_type="CentripetalCatmullRom"
       interpolator_beta="0.2"
       start_linecap_type="zerowidth"
       linejoin_type="round"
       miter_limit="4"
       scale_width="0"
       end_linecap_type="zerowidth" />
    <inkscape:path-effect
       effect="fill_between_many"
       method="bsplinespiro"
       linkedpaths="#path509,0,1"
       id="path-effect1893"
       join="true"
       close="true"
       autoreverse="true" />
  </defs>
  <path
     inkscape:original-d="M 0,0"
     inkscape:path-effect="#path-effect1893;#path-effect1897"
     d="m 1.4139636,5.9155366 0.00107,-0.00107 a 1.9820119,1.9820119 0.24869863 0 1 2.8155948,0.012221 l 6.3717378,6.4856301 a 1.9640217,1.9640217 179.98751 0 0 2.80264,-6.11e-4 l 6.364982,-6.484408 a 1.9811477,1.9811477 179.73881 0 1 2.814973,-0.012833 l 0.0011,0.00107 a 2.0148083,2.0148083 89.798795 0 1 0.01,2.8388227 l -9.18801,9.3212817 a 1.9720623,1.9720623 179.99045 0 1 -2.808464,4.68e-4 L 1.4044692,8.7538912 a 2.0141368,2.0141368 90.191656 0 1 0.00949,-2.8383546 z"
     id="path1895"
     style="fill:#32343d"
     class="UnoptimicedTransforms" />
  <path
     d="M 0,7.33 C 0.5729036,6.7568939 1.6098843,5.7195466 2.829,4.5 5.6932183,7.4154153 8.867423,10.646358 12.004,13.839 15.225097,10.557465 18.406476,7.3163951 21.171,4.5 22.024151,5.3534531 23.005947,6.3355956 24,7.3299995 19.899032,11.490451 15.748868,15.700813 12.004,19.5 6.8310539,14.255519 2.430942,9.7945588 0,7.33 Z m 0,0 C 2.430942,9.7945588 6.8310539,14.255519 12.004,19.5 15.748868,15.700813 19.899032,11.490451 24,7.33 23.005947,6.3355956 22.024151,5.3534531 21.171,4.5 18.406476,7.3163951 15.225097,10.557465 12.004002,13.838998 8.867423,10.646358 5.6932183,7.4154153 2.829,4.5 1.6098843,5.7195466 0.5729036,6.7568939 0,7.33 Z"
     fill="#32343d"
     id="path509"
     class="UnoptimicedTransforms"
     inkscape:path-effect="#path-effect1891"
     inkscape:original-d="M 0,7.33 2.829,4.5 12.004,13.839 21.171,4.5 24,7.33 12.004,19.5 Z"
     inkscape:linked-fill="path1895"
     style="fill-rule:nonzero;stroke:none" />
</svg>
