<?xml version="1.0" encoding="UTF-8" standalone="no"?>
<svg
   width="24"
   height="24"
   viewBox="0 0 24 24"
   version="1.1"
   id="svg635"
   sodipodi:docname="arrowDownHover.svg"
   inkscape:version="1.2 (dc2aedaf03, 2022-05-15)"
   xmlns:inkscape="http://www.inkscape.org/namespaces/inkscape"
   xmlns:sodipodi="http://sodipodi.sourceforge.net/DTD/sodipodi-0.dtd"
   xmlns="http://www.w3.org/2000/svg"
   xmlns:svg="http://www.w3.org/2000/svg">
  <sodipodi:namedview
     id="namedview637"
     pagecolor="#505050"
     bordercolor="#ffffff"
     borderopacity="1"
     inkscape:showpageshadow="0"
     inkscape:pageopacity="0"
     inkscape:pagecheckerboard="1"
     inkscape:deskcolor="#505050"
     showgrid="false"
     inkscape:zoom="42.791667"
     inkscape:cx="8.5530672"
     inkscape:cy="11.988315"
     inkscape:window-width="3840"
     inkscape:window-height="2066"
     inkscape:window-x="-11"
     inkscape:window-y="-11"
     inkscape:window-maximized="1"
     inkscape:current-layer="svg635" />
  <defs
     id="defs16">
    <inkscape:path-effect
       effect="fillet_chamfer"
       id="path-effect1907"
       is_visible="true"
       lpeversion="1"
       nodesatellites_param="F,0,0,1,0,2,0,1 @ F,0,0,1,0,2,0,1 @ F,0,0,1,0,2,0,1 @ F,0,0,1,0,2,0,1 @ F,0,0,1,0,2,0,1 @ F,0,0,1,0,2,0,1"
       unit="px"
       method="auto"
       mode="F"
       radius="2"
       chamfer_steps="1"
       flexible="false"
       use_knot_distance="true"
       apply_no_radius="true"
       apply_with_radius="true"
       only_selected="false"
       hide_knots="false" />
  </defs>
  <path
     d="m 1.4139636,5.9155366 0.00107,-0.00107 a 1.9820119,1.9820119 0.24869863 0 1 2.8155948,0.012221 l 6.3717378,6.4856301 a 1.9640217,1.9640217 179.98751 0 0 2.80264,-6.11e-4 l 6.364982,-6.484408 a 1.9811477,1.9811477 179.73881 0 1 2.814973,-0.012833 l 0.0011,0.00107 a 2.0148083,2.0148083 89.798795 0 1 0.01,2.8388227 l -9.18801,9.3212817 a 1.9720623,1.9720623 179.99045 0 1 -2.808464,4.68e-4 L 1.4044692,8.7538912 a 2.0141368,2.0141368 90.191656 0 1 0.00949,-2.8383546 z"
     fill="#4F5363"
     id="path633"
     inkscape:path-effect="#path-effect1907"
     inkscape:original-d="M 0,7.33 2.829,4.5 12.004,13.839 21.171,4.5 24,7.33 12.004,19.5 Z" />
</svg>
