<?xml version="1.0" encoding="UTF-8" standalone="no"?>
<svg
   class="w-6 h-6"
   fill="none"
   stroke="#4F5363"
   viewBox="0 0 24 24"
   version="1.1"
   id="svg135"
   sodipodi:docname="copy1.svg"
   inkscape:version="1.2 (dc2aedaf03, 2022-05-15)"
   xmlns:inkscape="http://www.inkscape.org/namespaces/inkscape"
   xmlns:sodipodi="http://sodipodi.sourceforge.net/DTD/sodipodi-0.dtd"
   xmlns="http://www.w3.org/2000/svg"
   xmlns:svg="http://www.w3.org/2000/svg">
  <defs
     id="defs139" />
  <sodipodi:namedview
     id="namedview137"
     pagecolor="#505050"
     bordercolor="#ffffff"
     borderopacity="1"
     inkscape:showpageshadow="0"
     inkscape:pageopacity="0"
     inkscape:pagecheckerboard="1"
     inkscape:deskcolor="#505050"
     showgrid="false"
     inkscape:zoom="42.791667"
     inkscape:cx="11.661149"
     inkscape:cy="11.988315"
     inkscape:window-width="3840"
     inkscape:window-height="2066"
     inkscape:window-x="-11"
     inkscape:window-y="-11"
     inkscape:window-maximized="1"
     inkscape:current-layer="svg135" />
  <path
     stroke-linecap="round"
     stroke-linejoin="round"
     stroke-width="2"
     d="m 16,16 h 2 a 2,2 0 0 0 2,-2 V 6 A 2,2 0 0 0 18,4 H 10 A 2,2 0 0 0 8,6 v 2 m 6,12 H 6 A 2,2 0 0 1 4,18 V 10 A 2,2 0 0 1 6,8 h 8 a 2,2 0 0 1 2,2 v 8 a 2,2 0 0 1 -2,2 z"
     id="path133" />
</svg>
