<?xml version="1.0" encoding="UTF-8" standalone="no"?>
<svg
   width="24"
   height="24"
   viewBox="0 0 24 24"
   version="1.1"
   id="svg8"
   sodipodi:docname="duplicate.svg"
   inkscape:version="1.2 (dc2aedaf03, 2022-05-15)"
   xmlns:inkscape="http://www.inkscape.org/namespaces/inkscape"
   xmlns:sodipodi="http://sodipodi.sourceforge.net/DTD/sodipodi-0.dtd"
   xmlns="http://www.w3.org/2000/svg"
   xmlns:svg="http://www.w3.org/2000/svg">
  <defs
     id="defs12">
    <inkscape:path-effect
       effect="fillet_chamfer"
       id="path-effect299"
       is_visible="true"
       lpeversion="1"
       nodesatellites_param="F,0,0,1,0,0,0,1 @ F,0,0,1,0,0,0,1 @ F,0,0,1,0,0,0,1 @ F,0,0,1,0,0,0,1 @ F,0,0,1,0,0,0,1 @ F,0,0,1,0,0,0,1 @ F,0,0,1,0,0,0,1 @ F,0,0,1,0,0,0,1 @ F,0,0,1,0,0,0,1 @ F,0,0,1,0,0,0,1 @ F,0,0,1,0,0,0,1 @ F,0,0,1,0,0,0,1"
       unit="px"
       method="auto"
       mode="F"
       radius="0"
       chamfer_steps="1"
       flexible="false"
       use_knot_distance="true"
       apply_no_radius="true"
       apply_with_radius="true"
       only_selected="false"
       hide_knots="false" />
    <inkscape:path-effect
       effect="fillet_chamfer"
       id="path-effect297"
       is_visible="true"
       lpeversion="1"
       nodesatellites_param="F,0,0,1,0,1,0,1 @ F,0,0,1,0,1,0,1 @ F,0,0,1,0,1,0,1 @ F,0,0,1,0,1,0,1 @ F,0,0,1,0,1,0,1 @ F,0,0,1,0,1,0,1"
       unit="px"
       method="auto"
       mode="F"
       radius="1"
       chamfer_steps="1"
       flexible="false"
       use_knot_distance="true"
       apply_no_radius="true"
       apply_with_radius="true"
       only_selected="false"
       hide_knots="false" />
    <inkscape:path-effect
       effect="fillet_chamfer"
       id="path-effect295"
       is_visible="true"
       lpeversion="1"
       nodesatellites_param="F,0,0,1,0,2,0,1 @ F,0,0,1,0,2,0,1 @ F,0,0,1,0,2,0,1 @ F,0,0,1,0,2,0,1 | F,0,0,1,0,2,0,1 @ F,0,0,1,0,2,0,1 @ F,0,0,1,0,2,0,1 @ F,0,0,1,0,2,0,1"
       unit="px"
       method="auto"
       mode="F"
       radius="2"
       chamfer_steps="1"
       flexible="false"
       use_knot_distance="true"
       apply_no_radius="true"
       apply_with_radius="true"
       only_selected="false"
       hide_knots="false" />
  </defs>
  <sodipodi:namedview
     id="namedview10"
     pagecolor="#505050"
     bordercolor="#ffffff"
     borderopacity="1"
     inkscape:showpageshadow="0"
     inkscape:pageopacity="0"
     inkscape:pagecheckerboard="1"
     inkscape:deskcolor="#505050"
     showgrid="false"
     inkscape:zoom="42.791667"
     inkscape:cx="6.5783836"
     inkscape:cy="11.310613"
     inkscape:window-width="3840"
     inkscape:window-height="2066"
     inkscape:window-x="-11"
     inkscape:window-y="-11"
     inkscape:window-maximized="1"
     inkscape:current-layer="svg8" />
  <path
     d="M 18,5 H 8 A 1,1 45 0 1 7,4 1,1 135 0 1 8,3 h 12 a 1,1 45 0 1 1,1 v 12 a 1,1 135 0 1 -1,1 1,1 45 0 1 -1,-1 L 19,6 A 1,1 45 0 0 18,5 Z"
     fill="#2d303c"
     id="path2"
     inkscape:path-effect="#path-effect297"
     inkscape:original-d="M19 5H7V3H21V17H19V5Z" />
  <path
     d="m 9,13 v -2 h 2 v 2 h 2 v 2 h -2 v 2 H 9 V 15 H 7 v -2 z"
     fill="#2d303c"
     id="path4"
     inkscape:path-effect="#path-effect299"
     inkscape:original-d="M9 13V11H11V13H13V15H11V17H9V15H7V13H9Z" />
  <path
     fill-rule="evenodd"
     clip-rule="evenodd"
     d="m 5,7 h 10 a 2,2 45 0 1 2,2 v 10 a 2,2 135 0 1 -2,2 H 5 A 2,2 45 0 1 3,19 V 9 A 2,2 135 0 1 5,7 Z m 2,2 h 6 a 2,2 45 0 1 2,2 v 6 a 2,2 135 0 1 -2,2 H 7 A 2,2 45 0 1 5,17 V 11 A 2,2 135 0 1 7,9 Z"
     fill="#2d303c"
     id="path6"
     inkscape:path-effect="#path-effect295"
     inkscape:original-d="M3 7H17V21H3V7ZM5 9H15V19H5V9Z" />
</svg>
