<?xml version="1.0" encoding="UTF-8" standalone="no"?>
<svg
   width="24"
   height="24"
   viewBox="0 0 24 24"
   fill="none"
   version="1.1"
   id="svg1008"
   sodipodi:docname="link.svg"
   inkscape:version="1.2 (dc2aedaf03, 2022-05-15)"
   xmlns:inkscape="http://www.inkscape.org/namespaces/inkscape"
   xmlns:sodipodi="http://sodipodi.sourceforge.net/DTD/sodipodi-0.dtd"
   xmlns="http://www.w3.org/2000/svg"
   xmlns:svg="http://www.w3.org/2000/svg">
  <defs
     id="defs1012">
    <inkscape:path-effect
       effect="fillet_chamfer"
       id="path-effect1928"
       is_visible="true"
       lpeversion="1"
       nodesatellites_param="F,0,0,1,0,1,0,1 @ F,0,0,1,0,1,0,1 @ F,0,0,1,0,1,0,1 @ F,0,0,1,0,1,0,1 @ F,0,0,1,0,1,0,1 @ F,0,0,1,0,1,0,1 @ F,0,0,1,0,1,0,1 @ F,0,0,1,0,1,0,1 @ F,0,0,1,0,1,0,1 @ F,0,0,1,0,1,0,1 @ F,0,0,1,0,1,0,1 @ F,0,0,1,0,1,0,1 @ F,0,0,1,0,1,0,1 | F,0,0,1,0,1,0,1 @ F,0,0,1,0,1,0,1 @ F,0,0,1,0,1,0,1 @ F,0,0,1,0,1,0,1 @ F,0,0,1,0,1,0,1 @ F,0,0,1,0,1,0,1 @ F,0,0,1,0,1,0,1 @ F,0,0,1,0,1,0,1 @ F,0,0,1,0,1,0,1"
       unit="px"
       method="auto"
       mode="F"
       radius="1"
       chamfer_steps="1"
       flexible="false"
       use_knot_distance="true"
       apply_no_radius="true"
       apply_with_radius="true"
       only_selected="false"
       hide_knots="false" />
  </defs>
  <sodipodi:namedview
     id="namedview1010"
     pagecolor="#505050"
     bordercolor="#ffffff"
     borderopacity="1"
     inkscape:showpageshadow="0"
     inkscape:pageopacity="0"
     inkscape:pagecheckerboard="1"
     inkscape:deskcolor="#505050"
     showgrid="false"
     inkscape:zoom="42.791667"
     inkscape:cx="9.5929893"
     inkscape:cy="11.988315"
     inkscape:window-width="3840"
     inkscape:window-height="2066"
     inkscape:window-x="-11"
     inkscape:window-y="-11"
     inkscape:window-maximized="1"
     inkscape:current-layer="svg1008" />
  <path
     d="M 16.001,20 H 7.00098 C 6.4486953,20 5.5215033,20.017977 5.0421109,19.755591 4.7064101,19.571851 4.4291753,19.294628 4.2454228,18.958932 3.9830006,18.479516 4.00098,17.552285 4.00098,17 V 8 c 0,-0.5522847 -0.017975,-1.4794772 0.2444146,-1.9588674 C 4.4291356,5.7054348 4.706359,5.428202 5.0420494,5.2444492 5.521464,4.9820235 6.4486953,5 7.00098,5 H 9.001 a 1,1 45 0 1 1,1 1,1 135 0 1 -1,1 H 7.00098 a 1,1 135 0 0 -1,1 v 9 a 1,1 45 0 0 1,1 H 16.001 a 1,1 135 0 0 1,-1 v -2 a 1,1 135 0 1 1,-1 1,1 45 0 1 1,1 v 2 c 0,0.552285 0.01797,1.479478 -0.24442,1.958865 -0.183745,0.335696 -0.46097,0.612924 -0.796652,0.796676 C 17.480516,20.017971 16.553285,20 16.001,20 Z m -5.006105,-7.001108 a 0.99985222,0.99985222 90.130214 0 1 0.0032,-1.412999 L 15.876893,6.7071068 A 0.41421356,0.41421356 67.5 0 0 15.584,6 h -1.583 a 1,1 45 0 1 -1,-1 1,1 135 0 1 1,-1 h 5 a 1,1 45 0 1 1,1 l 0,5 a 1,1 135 0 1 -1,1 1,1 45 0 1 -1,-1 V 8.415 A 0.41458578,0.41458578 22.518201 0 0 17.293444,8.1216574 l -4.884888,4.8786856 a 0.9992192,0.9992192 0.05877841 0 1 -1.413661,-0.0015 z"
     fill="#32343D"
     id="path1006"
     inkscape:path-effect="#path-effect1928"
     inkscape:original-d="M17.001 20H6.00098C4.89641 20 4.00098 19.1046 4.00098 18V7C4.00098 5.89543 4.89641 5 6.00098 5H10.001V7H6.00098V18H17.001V14H19.001V18C19.001 19.1046 18.1055 20 17.001 20ZM11.701 13.707L10.291 12.293L16.584 6H13.001V4H20.001V11H18.001V7.415L11.701 13.707Z" />
</svg>
