<?xml version="1.0" encoding="utf-8"?>
<svg width="24" height="24" viewBox="0 0 24 24" fill="none" version="1.1" id="svg260" xmlns="http://www.w3.org/2000/svg">
  <path d="M 5 14.5 C 5 13.948 5.448 13.5 6 13.5 L 18 13.5 C 18.552 13.5 19 13.948 19 14.5 C 19 15.052 18.552 15.5 18 15.5 L 6 15.5 C 5.448 15.5 5 15.052 5 14.5 Z" fill="#e1e1e1" id="path258"/>
  <path d="M 5 9.5 C 5 8.947 5.448 8.5 6 8.5 L 18 8.5 C 18.552 8.5 19 8.947 19 9.5 C 19 10.052 18.552 10.5 18 10.5 L 6 10.5 C 5.448 10.5 5 10.052 5 9.5 Z" fill="#e1e1e1" id="path-1"/>
</svg>