<svg width="400" height="400" viewBox="0 0 400 400" fill="none" xmlns="http://www.w3.org/2000/svg">
<path d="M83.3333 283C83.3333 273.064 90.8 265 100 265H300C309.2 265 316.667 273.064 316.667 283C316.667 292.936 309.2 301 300 301H100C90.8 301 83.3333 292.936 83.3333 283Z" fill="#404351"/>
<path d="M83.3333 199.667C83.3333 189.713 90.8 181.667 100 181.667H300C309.2 181.667 316.667 189.713 316.667 199.667C316.667 209.603 309.2 217.667 300 217.667H100C90.8 217.667 83.3333 209.603 83.3333 199.667Z" fill="#404351"/>
<path d="M83 116C83 106.046 90.4667 98 99.6667 98H299.667C308.867 98 316.333 106.046 316.333 116C316.333 125.936 308.867 134 299.667 134H99.6667C90.4667 134 83 125.936 83 116Z" fill="#404351"/>
</svg>
