<?xml version="1.0" encoding="utf-8"?>
<svg viewBox="0 0 24 24" fill="none" xmlns="http://www.w3.org/2000/svg">
  <path d="M 2 7 C 2 6.448 2.448 6 3 6 L 21 6 C 21.552 6 22 6.448 22 7 C 22 7.552 21.552 8 21 8 L 3 8 C 2.448 8 2 7.552 2 7 Z" fill="#34363d"/>
  <path d="M2 12C2 11.4477 2.44772 11 3 11H21C21.5523 11 22 11.4477 22 12C22 12.5523 21.5523 13 21 13H3C2.44772 13 2 12.5523 2 12Z" fill="#34363d"/>
  <path d="M 3 16 C 2.448 16 2 16.448 2 17 C 2 17.552 2.448 18 3 18 L 15 18 C 15.552 18 16 17.552 16 17 C 16 16.448 15.552 16 15 16 L 3 16 Z" fill="#34363d"/>
</svg>