<?xml version="1.0" encoding="UTF-8" standalone="no"?>
<svg
   width="24"
   height="24"
   viewBox="0 0 24 24"
   fill="none"
   version="1.1"
   id="svg8"
   sodipodi:docname="trashRed.svg"
   inkscape:version="1.2 (dc2aedaf03, 2022-05-15)"
   xmlns:inkscape="http://www.inkscape.org/namespaces/inkscape"
   xmlns:sodipodi="http://sodipodi.sourceforge.net/DTD/sodipodi-0.dtd"
   xmlns="http://www.w3.org/2000/svg"
   xmlns:svg="http://www.w3.org/2000/svg">
  <defs
     id="defs12">
    <inkscape:path-effect
       effect="fillet_chamfer"
       id="path-effect3082"
       is_visible="true"
       lpeversion="1"
       nodesatellites_param="F,0,0,1,0,1,0,1 @ F,0,0,1,0,1,0,1 @ F,0,0,1,0,1,0,1 @ F,0,0,1,0,1,0,1"
       unit="px"
       method="auto"
       mode="F"
       radius="1"
       chamfer_steps="1"
       flexible="false"
       use_knot_distance="true"
       apply_no_radius="true"
       apply_with_radius="true"
       only_selected="false"
       hide_knots="false" />
    <inkscape:path-effect
       effect="fillet_chamfer"
       id="path-effect3080"
       is_visible="true"
       lpeversion="1"
       nodesatellites_param="F,0,0,1,0,1,0,1 @ F,0,0,1,0,1,0,1 @ F,0,0,1,0,1,0,1 @ F,0,0,1,0,1,0,1"
       unit="px"
       method="auto"
       mode="F"
       radius="1"
       chamfer_steps="1"
       flexible="false"
       use_knot_distance="true"
       apply_no_radius="true"
       apply_with_radius="true"
       only_selected="false"
       hide_knots="false" />
  </defs>
  <sodipodi:namedview
     id="namedview10"
     pagecolor="#505050"
     bordercolor="#ffffff"
     borderopacity="1"
     inkscape:showpageshadow="0"
     inkscape:pageopacity="0"
     inkscape:pagecheckerboard="1"
     inkscape:deskcolor="#505050"
     showgrid="false"
     inkscape:zoom="85.583333"
     inkscape:cx="9.4235638"
     inkscape:cy="10.492697"
     inkscape:window-width="3840"
     inkscape:window-height="2066"
     inkscape:window-x="-11"
     inkscape:window-y="-11"
     inkscape:window-maximized="1"
     inkscape:current-layer="svg8" />
  <path
     fill-rule="evenodd"
     clip-rule="evenodd"
     d="M 17,5 V 4 C 17,2.89543 16.1046,2 15,2 H 9 C 7.89543,2 7,2.89543 7,4 V 5 H 4 C 3.44772,5 3,5.44772 3,6 3,6.55228 3.44772,7 4,7 h 1 v 11 c 0,1.6569 1.34315,3 3,3 h 8 c 1.6569,0 3,-1.3431 3,-3 V 7 h 1 C 20.5523,7 21,6.55228 21,6 21,5.44772 20.5523,5 20,5 Z M 15,4 H 9 v 1 h 6 z m 2,3 H 7 v 11 c 0,0.5523 0.44772,1 1,1 h 8 c 0.5523,0 1,-0.4477 1,-1 z"
     fill="#c6354d"
     id="path2" />
  <path
     d="m 10,9 a 1,1 45 0 1 1,1 v 6 a 1,1 135 0 1 -1,1 1,1 45 0 1 -1,-1 v -6 a 1,1 135 0 1 1,-1 z"
     fill="#c6354d"
     id="path4"
     inkscape:path-effect="#path-effect3080"
     inkscape:original-d="M9 9H11V17H9V9Z" />
  <path
     d="m 14,9 a 1,1 45 0 1 1,1 v 6 a 1,1 135 0 1 -1,1 1,1 45 0 1 -1,-1 v -6 a 1,1 135 0 1 1,-1 z"
     fill="#c6354d"
     id="path6"
     inkscape:path-effect="#path-effect3082"
     inkscape:original-d="M13 9H15V17H13V9Z" />
</svg>
