<?xml version="1.0" encoding="UTF-8" standalone="no"?>
<svg
   width="24"
   height="24"
   viewBox="0 0 24 24"
   fill="none"
   version="1.1"
   id="svg6"
   sodipodi:docname="upload.svg"
   inkscape:version="1.2 (dc2aedaf03, 2022-05-15)"
   xmlns:inkscape="http://www.inkscape.org/namespaces/inkscape"
   xmlns:sodipodi="http://sodipodi.sourceforge.net/DTD/sodipodi-0.dtd"
   xmlns="http://www.w3.org/2000/svg"
   xmlns:svg="http://www.w3.org/2000/svg">
  <defs
     id="defs10">
    <inkscape:path-effect
       effect="fillet_chamfer"
       id="path-effect295"
       is_visible="true"
       lpeversion="1"
       nodesatellites_param="F,0,0,1,0,1,0,1 @ F,0,0,1,0,1,0,1 @ F,0,0,1,0,1,0,1 @ F,0,0,1,0,1,0,1 @ F,0,0,1,0,1,0,1 @ F,0,0,1,0,1,0,1 @ F,0,0,1,0,1,0,1 @ F,0,0,1,0,1,0,1 @ F,0,0,1,0,1,0,1 @ F,0,0,1,0,1,0,1"
       unit="px"
       method="auto"
       mode="F"
       radius="1"
       chamfer_steps="1"
       flexible="false"
       use_knot_distance="true"
       apply_no_radius="true"
       apply_with_radius="true"
       only_selected="false"
       hide_knots="false" />
    <inkscape:path-effect
       effect="fillet_chamfer"
       id="path-effect293"
       is_visible="true"
       lpeversion="1"
       nodesatellites_param="F,0,0,1,0,1,0,1 @ F,0,0,1,0,1,0,1 @ F,0,0,1,0,1,0,1 @ F,0,0,1,0,1,0,1 @ F,0,0,1,0,1,0,1 @ F,0,0,1,0,1,0,1 @ F,0,0,1,0,1,0,1 @ F,0,0,1,0,1,0,1 @ F,0,0,1,0,1,0,1 @ F,0,0,1,0,1,0,1"
       unit="px"
       method="auto"
       mode="F"
       radius="1"
       chamfer_steps="1"
       flexible="false"
       use_knot_distance="true"
       apply_no_radius="true"
       apply_with_radius="true"
       only_selected="false"
       hide_knots="false" />
  </defs>
  <sodipodi:namedview
     id="namedview8"
     pagecolor="#505050"
     bordercolor="#ffffff"
     borderopacity="1"
     inkscape:showpageshadow="0"
     inkscape:pageopacity="0"
     inkscape:pagecheckerboard="1"
     inkscape:deskcolor="#505050"
     showgrid="false"
     inkscape:zoom="85.583333"
     inkscape:cx="7.1684518"
     inkscape:cy="11.520935"
     inkscape:window-width="3840"
     inkscape:window-height="2066"
     inkscape:window-x="-11"
     inkscape:window-y="-11"
     inkscape:window-maximized="1"
     inkscape:current-layer="svg6" />
  <path
     d="m 11.459498,15.827595 c 0.261591,0.168365 1.095414,0.14427 1.381997,-0.300993 C 13.00986,15.265011 13,14.538385 13,13.9861 V 8.82831 a 0.41421447,0.41421447 157.49996 0 1 0.707108,-0.2928943 l 1.828584,1.8285783 a 0.99998386,0.99998386 179.99945 0 0 1.414202,-1.3e-5 l 1.2e-5,-1.2e-5 A 1.0000133,1.0000133 89.999367 0 0 16.94989,8.9497463 L 12.70721,4.7071037 a 1.0000035,1.0000035 179.99985 0 0 -1.414216,3.7e-6 L 7.0503662,8.9497426 a 1.0000115,1.0000115 90.000279 0 0 -6.9e-6,1.4142214 l 2.14e-5,2.2e-5 a 0.99998323,0.99998323 1.2715185e-4 0 0 1.4142017,3e-6 L 10.292898,8.5356511 A 0.41420995,0.41420995 22.499823 0 1 11,8.82854 v 5.15756 c 0,0.552285 0.01423,1.554912 0.459498,1.841495 z"
     fill="#00b066"
     id="path2"
     inkscape:path-effect="#path-effect295"
     inkscape:original-d="M11 14.9861C11 15.5384 11.4477 15.9861 12 15.9861C12.5523 15.9861 13 15.5384 13 14.9861V7.82831L16.2428 11.0711L17.657 9.65685L12.0001 4L6.34326 9.65685L7.75748 11.0711L11 7.82854V14.9861Z" />
  <path
     d="m 5,14 a 1,1 45 0 1 1,1 v 2 a 1,1 45 0 0 1,1 h 10 a 1,1 135 0 0 1,-1 v -2 a 1,1 135 0 1 1,-1 1,1 45 0 1 1,1 v 2 c 0,0.552285 0.01798,1.479477 -0.244403,1.958871 -0.183739,0.335706 -0.460965,0.612941 -0.796663,0.796691 C 18.479515,20.017981 17.552285,20 17,20 H 7 C 6.4477153,20 5.5205233,20.017977 5.0411309,19.755591 4.7054301,19.571851 4.4281953,19.294628 4.2444428,18.958932 3.9820206,18.479516 4,17.552285 4,17 v -2 a 1,1 135 0 1 1,-1 z"
     fill="#00b066"
     id="path4"
     inkscape:path-effect="#path-effect293"
     inkscape:original-d="M4 14H6V18H18V14H20V18C20 19.1046 19.1046 20 18 20H6C4.89543 20 4 19.1046 4 18V14Z" />
</svg>
