<svg width="276" height="347" viewBox="0 0 276 347" fill="none" xmlns="http://www.w3.org/2000/svg">
<path d="M218.427 304.342L200.46 303.246L200.427 303.794V304.342H218.427ZM57.5732 304.342H75.5732V303.794L75.5397 303.246L57.5732 304.342ZM18 71C8.05887 71 0 79.0589 0 89C0 98.9411 8.05887 107 18 107V71ZM258 107C267.941 107 276 98.9411 276 89C276 79.0589 267.941 71 258 71V107ZM110.36 36H165.64V0H110.36V36ZM165.64 36C172.349 36 180 42.6397 180 51.9832H216C216 24.2083 193.651 0 165.64 0V36ZM180 51.9832V73.9687H216V51.9832H180ZM180 73.9687C180 76.5378 179.572 76.3445 180.264 75.01C180.657 74.2515 181.291 73.3663 182.201 72.5553C183.093 71.7593 183.959 71.2948 184.556 71.0472C185.107 70.8185 185.379 70.795 185.169 70.8303C184.953 70.8664 184.474 70.9253 183.592 70.9622C182.708 70.9991 181.659 71.0058 180.276 70.9958C179.059 70.987 177.247 70.9603 175.64 70.9603V106.96C177.849 106.96 181.949 107.062 185.095 106.931C188.446 106.791 193.38 106.361 198.346 104.301C203.937 101.983 208.972 97.85 212.222 91.584C215.177 85.8862 216 79.6791 216 73.9687H180ZM175.64 70.9603H100.36V106.96H175.64V70.9603ZM100.36 70.9603C98.7534 70.9603 96.9409 70.987 95.7236 70.9958C94.3406 71.0058 93.2923 70.9991 92.4079 70.9622C91.5258 70.9253 91.0471 70.8664 90.8315 70.8303C90.6208 70.795 90.8927 70.8185 91.4441 71.0472C92.0412 71.2948 92.9066 71.7593 93.7992 72.5553C94.7086 73.3663 95.3426 74.2515 95.736 75.01C96.4281 76.3445 96 76.5378 96 73.9687H60C60 79.6791 60.8232 85.8862 63.7782 91.584C67.0278 97.85 72.0632 101.983 77.6539 104.301C82.6202 106.361 87.5536 106.791 90.905 106.931C94.0509 107.062 98.151 106.96 100.36 106.96V70.9603ZM96 73.9687V51.9832H60V73.9687H96ZM96 51.9832C96 42.2726 103.01 36 110.36 36V0C81.0111 0 60 24.5754 60 51.9832H96ZM213.201 94.4789L200.46 303.246L236.393 305.439L249.134 96.6718L213.201 94.4789ZM200.427 304.342C200.427 308.561 197.258 311 194.538 311V347C218.206 347 236.427 327.36 236.427 304.342H200.427ZM194.538 311H81.4621V347H194.538V311ZM81.4621 311C78.7423 311 75.5732 308.561 75.5732 304.342H39.5732C39.5732 327.36 57.7938 347 81.4621 347V311ZM75.5397 303.246L62.7989 94.4789L26.8657 96.6718L39.6066 305.439L75.5397 303.246ZM18 107H258V71H18V107Z" fill="#009966"/>
</svg>
